<svg width="353" height="372" viewBox="0 0 353 372" fill="none" xmlns="http://www.w3.org/2000/svg">
<path d="M321.573 299.738L292.08 316.764L291.211 317.285V318.292V351.372V352.379L292.08 352.9L321.573 369.926L352.804 351.893L323.31 334.867L352.804 317.841L321.573 299.738ZM292.948 319.265L319.836 334.797L292.948 350.329V319.265ZM349.364 351.858L321.608 367.876L293.852 351.858L321.608 335.84L349.364 351.858ZM321.573 333.79L293.817 317.771L321.573 301.718L349.33 317.771L321.573 333.79Z" fill="#004077"/>
<path d="M176.054 300.12L145.692 317.667V352.727L175.186 369.753L176.054 370.239L176.923 369.753L207.285 352.24L205.999 351.476L177.826 335.214L207.319 318.188L176.054 300.12ZM175.186 367.703L147.429 351.684V318.64L176.054 302.1L203.811 318.119L176.054 334.137L175.186 334.623V367.703ZM176.923 367.703V336.674L203.811 352.205L176.923 367.703Z" fill="#004077"/>
<path d="M29.6673 334.172L0.13916 317.146V353.248L31.4042 371.282V337.195L60.9324 354.221V318.119L29.6673 300.085V334.172ZM29.6673 368.224L1.91085 352.171V320.099L29.6673 336.152V368.224ZM31.4042 303.073L59.1607 319.126V351.198L31.4042 335.145V303.073Z" fill="#004077"/>
<path d="M352.838 167.92L321.573 149.886L292.045 166.912L291.211 167.399V168.406V201.485V202.493L292.08 203.014L321.608 220.04L352.873 202.007L323.38 184.981L352.838 167.92ZM321.573 151.867L349.33 167.92L321.573 183.973L293.817 167.92L321.573 151.867ZM292.948 169.414L319.836 184.946L292.948 200.478V169.414ZM349.364 202.007L321.608 218.06L293.852 202.007L321.608 185.954L349.364 202.007Z" fill="#004077"/>
<path d="M31.1956 149.851L0 167.85V202.875L30.3271 220.388L61.5227 202.389L31.1956 184.876V149.851ZM29.4586 152.84V184.842L1.73695 200.86V168.858L29.4586 152.84ZM58.0141 202.354L30.2924 218.372L2.57068 202.354L30.2924 186.336L58.0141 202.354Z" fill="#004077"/>
<path d="M176.853 149.886L145.658 167.885V202.91L175.985 220.423L207.18 202.424L176.853 184.911V149.886ZM175.116 152.874V184.876L147.395 200.895V168.893L175.116 152.874ZM203.707 202.389L175.985 218.407L148.263 202.389L175.985 186.371L203.707 202.389Z" fill="#004077"/>
<path d="M321.608 70.1889L351.136 53.1629L352.005 52.6417V51.634V17.5472L321.608 0L291.211 17.5472V51.634V52.6417L292.08 53.1629L321.608 70.1889ZM321.608 68.1736L293.852 52.1204L321.608 36.0674L349.364 52.1204L321.608 68.1736ZM350.233 50.6263L322.477 34.5732V2.50178L350.233 18.5549V50.6263ZM292.948 18.5549L320.705 2.50178V34.5732L292.948 50.6263V18.5549Z" fill="#004077"/>
<path d="M176.054 70.1889L176.923 69.6677L206.451 52.6417V17.5472L176.923 0.521204L176.054 0L175.186 0.521204L145.692 17.5472V52.6417L175.186 69.6677L176.054 70.1889ZM176.923 2.50178L204.679 18.5549V51.634L176.923 67.6871V2.50178ZM147.429 51.634V18.5549L175.186 2.50178V67.6524L147.429 51.634Z" fill="#004077"/>
<path d="M60.446 51.356L39.1162 39.0208L32.2726 35.0597L61.766 18.0337L30.5357 0L0.173828 17.5472V52.6069L29.6672 69.6329L30.5357 70.1541L31.4042 69.6329L61.766 52.0857L60.446 51.356ZM58.2921 18.0337L30.5357 34.052L2.77925 18.0337L30.5357 2.01532L58.2921 18.0337ZM1.91078 51.5992V19.5625L29.6672 35.5809V67.6523L1.91078 51.5992ZM31.4042 67.6176V36.5538L39.9152 41.4531L58.2921 52.051L31.4042 67.6176Z" fill="#004077"/>
</svg>
