<svg width="29" height="29" viewBox="0 0 29 29" fill="none" xmlns="http://www.w3.org/2000/svg">
<path d="M7.93019 0C5.84099 1.16754 4.05089 2.80349 2.70044 4.77939C1.34999 6.75529 0.475954 9.01734 0.146976 11.3879C-0.181999 13.7585 0.0430355 16.1731 0.804407 18.4421C1.56578 20.711 2.84276 22.7726 4.53508 24.4649C6.2274 26.1572 8.28898 27.4342 10.5579 28.1956C12.8269 28.957 15.2415 29.182 17.6121 28.853C19.9827 28.524 22.2447 27.65 24.2206 26.2996C26.1965 24.9491 27.8325 23.159 29 21.0698C23.1046 24.3702 15.5068 23.5217 10.4934 18.5083C5.47832 13.4932 4.62803 5.89721 7.93019 0Z" fill="#004077"/>
</svg>
