<svg width="42" height="41" viewBox="0 0 42 41" fill="none" xmlns="http://www.w3.org/2000/svg">
<path d="M0 20.1796C0.318742 19.4886 0.864241 19.2596 1.60976 19.2885C2.71359 19.3302 3.82063 19.2971 4.92553 19.3003C5.73202 19.3024 6.26468 19.7945 6.25398 20.5198C6.24436 21.2237 5.71383 21.6987 4.92553 21.7009C3.82063 21.7041 2.71359 21.6709 1.60976 21.7126C0.864241 21.7404 0.319812 21.5104 0 20.8215C0 20.6065 0 20.3925 0 20.1796Z" fill="#E4E4E4"/>
<path d="M20.1817 41.0012C19.4908 40.6824 19.2629 40.1368 19.2897 39.3912C19.3303 38.2872 19.2982 37.181 19.3014 36.0749C19.3036 35.2704 19.7977 34.7366 20.5219 34.7462C21.2257 34.7558 21.6995 35.2854 21.7016 36.0749C21.7048 37.18 21.6717 38.2872 21.7134 39.3912C21.7412 40.1357 21.5112 40.6813 20.8214 41.0012C20.6085 41.0012 20.3946 41.0012 20.1817 41.0012Z" fill="#E4E4E4"/>
<path d="M20.5086 30.704C14.8803 30.7126 10.2949 26.1286 10.2981 20.4962C10.3024 14.8585 14.8878 10.2799 20.5139 10.2959C26.1464 10.312 30.6837 14.8478 30.704 20.4823C30.7244 26.1083 26.1486 30.6954 20.5086 30.704Z" fill="#E4E4E4"/>
<path d="M34.1266 5.59766C34.64 5.67575 35.0079 5.88756 35.2165 6.32296C35.4304 6.76906 35.4165 7.23976 35.0742 7.59706C34.1244 8.58874 33.1575 9.56437 32.1617 10.509C31.7114 10.9358 30.9894 10.8567 30.5648 10.4245C30.1273 9.97945 30.0813 9.25521 30.5263 8.79307C31.4504 7.83241 32.396 6.89101 33.3597 5.96994C33.5554 5.78273 33.8677 5.71854 34.1266 5.59766Z" fill="#E4E4E4"/>
<path d="M35.4006 34.1235C35.3268 34.6338 35.115 35.005 34.6829 35.2147C34.239 35.4286 33.7652 35.4168 33.409 35.0745C32.4175 34.1256 31.442 33.1575 30.4954 32.1626C30.0686 31.7133 30.1446 30.9933 30.5756 30.5654C31.0077 30.1375 31.7222 30.0701 32.1736 30.4991C33.1587 31.4362 34.116 32.4033 35.0573 33.3843C35.2348 33.5704 35.2894 33.8742 35.4006 34.1235Z" fill="#E4E4E4"/>
<path d="M6.87744 35.4128C6.35868 35.3241 5.99073 35.1101 5.78323 34.6747C5.57145 34.2297 5.58642 33.7579 5.9287 33.4017C6.87958 32.4111 7.8465 31.4344 8.84337 30.4908C9.30223 30.0565 10.0488 30.1517 10.467 30.6106C10.8981 31.0835 10.8959 31.7842 10.421 32.2752C9.64237 33.0797 8.84123 33.8638 8.04973 34.6554C7.92672 34.7785 7.81976 34.9272 7.67536 35.0149C7.42187 35.1668 7.14484 35.2813 6.87744 35.4128Z" fill="#E4E4E4"/>
<path d="M5.60474 6.88399C5.67212 6.37478 5.87962 6.00571 6.31282 5.79176C6.7567 5.57245 7.23054 5.57887 7.58672 5.91906C8.58787 6.87651 9.57404 7.85428 10.5249 8.86093C10.9367 9.2974 10.8501 10.0077 10.434 10.426C10.0072 10.8561 9.28525 10.9309 8.83708 10.5052C7.84235 9.55843 6.87864 8.57958 5.92669 7.59004C5.75769 7.4146 5.70849 7.12255 5.60474 6.88399Z" fill="#E4E4E4"/>
<path d="M19.2999 3.14101C19.2999 2.51412 19.2946 1.88724 19.301 1.26035C19.3096 0.524346 19.8337 -0.0105401 20.5204 0.000157646C21.1899 0.0108554 21.6959 0.539323 21.7001 1.25714C21.7076 2.51091 21.7087 3.76576 21.7001 5.01953C21.6948 5.73735 21.1825 6.25298 20.5033 6.25298C19.8241 6.25405 19.3128 5.73628 19.3032 5.02167C19.2935 4.39478 19.2999 3.7679 19.2999 3.14101Z" fill="#E4E4E4"/>
<path d="M37.9198 19.2985C38.5198 19.2985 39.1209 19.2942 39.721 19.2996C40.4643 19.306 41.0002 19.8109 41.0013 20.4977C41.0024 21.1845 40.4686 21.6959 39.7252 21.7002C38.4845 21.7066 37.2438 21.7066 36.003 21.7002C35.2618 21.6959 34.7409 21.1803 34.7484 20.4828C34.7569 19.8056 35.2746 19.3103 35.9987 19.3017C36.6384 19.2932 37.2791 19.2985 37.9198 19.2985Z" fill="#E4E4E4"/>
</svg>
