<svg width="106" height="41" viewBox="0 0 106 41" fill="none" xmlns="http://www.w3.org/2000/svg">
<path d="M6.12 15.24C5.30667 15.24 4.53333 15.1 3.8 14.82C3.08 14.5267 2.44 14.1 1.88 13.54C1.33333 12.98 0.893333 12.2867 0.56 11.46C0.24 10.62 0.08 9.65333 0.08 8.56C0.08 7.48 0.24 6.52 0.56 5.68C0.88 4.82667 1.32 4.10667 1.88 3.52C2.44 2.93333 3.1 2.48667 3.86 2.18C4.62 1.87333 5.43333 1.72 6.3 1.72C7.12667 1.72 7.87333 1.89333 8.54 2.24C9.20667 2.57333 9.76 2.95333 10.2 3.38L8.58 5.2C8.27333 4.92 7.93333 4.69333 7.56 4.52C7.2 4.34667 6.78 4.26 6.3 4.26C5.83333 4.26 5.40667 4.36 5.02 4.56C4.63333 4.74667 4.29333 5.02 4 5.38C3.72 5.74 3.5 6.18 3.34 6.7C3.18 7.22 3.1 7.80667 3.1 8.46C3.1 9.80667 3.40667 10.8533 4.02 11.6C4.63333 12.3333 5.43333 12.7 6.42 12.7C6.88667 12.7 7.31333 12.5933 7.7 12.38C8.1 12.1667 8.46 11.8867 8.78 11.54L10.4 13.32C9.32 14.6 7.89333 15.24 6.12 15.24ZM12.4322 15V0.979999H15.3722V4.42L15.2122 6.32H15.2722C15.6455 5.93333 16.0989 5.59333 16.6322 5.3C17.1655 4.99333 17.8122 4.84 18.5722 4.84C19.6922 4.84 20.5055 5.2 21.0122 5.92C21.5322 6.64 21.7922 7.62667 21.7922 8.88V15H18.8522V9.26C18.8522 8.59333 18.7455 8.10667 18.5322 7.8C18.3189 7.49333 17.9389 7.34 17.3922 7.34C16.9922 7.34 16.6389 7.42667 16.3322 7.6C16.0389 7.77333 15.7189 8.03333 15.3722 8.38V15H12.4322ZM27.4644 15.24C26.9577 15.24 26.5044 15.16 26.1044 15C25.7044 14.8533 25.3644 14.6467 25.0844 14.38C24.8044 14.1 24.5844 13.78 24.4244 13.42C24.2777 13.06 24.2044 12.6667 24.2044 12.24C24.2044 11.68 24.3244 11.1933 24.5644 10.78C24.8044 10.3533 25.1844 9.99333 25.7044 9.7C26.2377 9.40667 26.9177 9.17333 27.7444 9C28.571 8.81333 29.571 8.68667 30.7444 8.62C30.691 8.16667 30.491 7.81333 30.1444 7.56C29.811 7.30667 29.3044 7.18 28.6244 7.18C28.1444 7.18 27.6577 7.26667 27.1644 7.44C26.6844 7.6 26.1644 7.82 25.6044 8.1L24.5644 6.18C25.2444 5.79333 25.971 5.47333 26.7444 5.22C27.531 4.96667 28.351 4.84 29.2044 4.84C30.591 4.84 31.6844 5.20667 32.4844 5.94C33.2844 6.67333 33.6844 7.8 33.6844 9.32V15H31.2844L31.0644 13.88H30.9844C30.4777 14.2667 29.9244 14.5933 29.3244 14.86C28.7244 15.1133 28.1044 15.24 27.4644 15.24ZM28.4044 12.96C28.8444 12.96 29.2577 12.8733 29.6444 12.7C30.031 12.5133 30.3977 12.2867 30.7444 12.02V10.38C30.011 10.42 29.4044 10.4867 28.9244 10.58C28.4444 10.6733 28.0644 10.7933 27.7844 10.94C27.5044 11.0733 27.3044 11.2333 27.1844 11.42C27.0777 11.6067 27.0244 11.8067 27.0244 12.02C27.0244 12.34 27.1444 12.58 27.3844 12.74C27.6377 12.8867 27.9777 12.96 28.4044 12.96ZM42.8766 15.24C41.6232 15.24 40.6766 14.8733 40.0366 14.14C39.4099 13.3933 39.0966 12.3867 39.0966 11.12V3.3H35.9766V0.979999H42.0366V11.24C42.0366 11.5467 42.0766 11.8067 42.1566 12.02C42.2499 12.22 42.3699 12.3867 42.5166 12.52C42.6766 12.64 42.8499 12.7267 43.0366 12.78C43.2366 12.8333 43.4432 12.86 43.6566 12.86C43.8832 12.86 44.1166 12.84 44.3566 12.8C44.6099 12.7467 44.8899 12.66 45.1966 12.54L45.8566 14.7C45.5899 14.78 45.3432 14.8533 45.1166 14.92C44.8899 14.9867 44.6632 15.04 44.4366 15.08C44.2099 15.1333 43.9699 15.1733 43.7166 15.2C43.4632 15.2267 43.1832 15.24 42.8766 15.24ZM54.8688 15.24C53.6154 15.24 52.6688 14.8733 52.0288 14.14C51.4021 13.3933 51.0888 12.3867 51.0888 11.12V3.3H47.9688V0.979999H54.0288V11.24C54.0288 11.5467 54.0688 11.8067 54.1488 12.02C54.2421 12.22 54.3621 12.3867 54.5088 12.52C54.6688 12.64 54.8421 12.7267 55.0288 12.78C55.2288 12.8333 55.4354 12.86 55.6488 12.86C55.8754 12.86 56.1088 12.84 56.3488 12.8C56.6021 12.7467 56.8821 12.66 57.1888 12.54L57.8488 14.7C57.5821 14.78 57.3354 14.8533 57.1088 14.92C56.8821 14.9867 56.6554 15.04 56.4288 15.08C56.2021 15.1333 55.9621 15.1733 55.7088 15.2C55.4554 15.2267 55.1754 15.24 54.8688 15.24ZM65.5609 15.24C64.7876 15.24 64.0609 15.1267 63.3809 14.9C62.7143 14.66 62.1343 14.32 61.6409 13.88C61.1476 13.44 60.7609 12.9 60.4809 12.26C60.2009 11.6067 60.0609 10.8667 60.0609 10.04C60.0609 9.22667 60.2009 8.5 60.4809 7.86C60.7743 7.20667 61.1609 6.66 61.6409 6.22C62.1209 5.76667 62.6676 5.42667 63.2809 5.2C63.9076 4.96 64.5543 4.84 65.2209 4.84C65.9809 4.84 66.6543 4.96 67.2409 5.2C67.8276 5.44 68.3143 5.77333 68.7009 6.2C69.1009 6.62667 69.4009 7.13333 69.6009 7.72C69.8009 8.29333 69.9009 8.92 69.9009 9.6C69.9009 9.86667 69.8809 10.1267 69.8409 10.38C69.8143 10.62 69.7876 10.8 69.7609 10.92H63.0009C63.1476 11.64 63.4743 12.1667 63.9809 12.5C64.4876 12.8333 65.1476 13 65.9609 13C66.4143 13 66.8409 12.94 67.2409 12.82C67.6543 12.7 68.0809 12.5267 68.5209 12.3L69.5009 14.08C68.9276 14.44 68.2943 14.7267 67.6009 14.94C66.9076 15.14 66.2276 15.24 65.5609 15.24ZM65.3209 7.08C64.7343 7.08 64.2409 7.23333 63.8409 7.54C63.4543 7.84667 63.1876 8.31333 63.0409 8.94H67.2809C67.1343 7.7 66.4809 7.08 65.3209 7.08ZM72.3931 15V5.08H74.7931L75.0131 6.4H75.0931C75.5198 5.97333 76.0065 5.60667 76.5531 5.3C77.1131 4.99333 77.7665 4.84 78.5131 4.84C79.6331 4.84 80.4531 5.2 80.9731 5.92C81.4931 6.64 81.7531 7.62667 81.7531 8.88V15H78.8131V9.26C78.8131 8.59333 78.7065 8.10667 78.4931 7.8C78.2798 7.49333 77.8998 7.34 77.3531 7.34C76.9531 7.34 76.5998 7.42667 76.2931 7.6C75.9998 7.77333 75.6798 8.03333 75.3331 8.38V15H72.3931ZM88.4853 19.22C87.8453 19.22 87.2453 19.1667 86.6853 19.06C86.1386 18.9667 85.6653 18.8133 85.2653 18.6C84.8653 18.4 84.552 18.14 84.3253 17.82C84.0986 17.5 83.9853 17.12 83.9853 16.68C83.9853 15.8667 84.4986 15.2067 85.5253 14.7V14.62C85.2453 14.4467 85.0053 14.2267 84.8053 13.96C84.6186 13.6933 84.5253 13.3467 84.5253 12.92C84.5253 12.5867 84.632 12.2533 84.8453 11.92C85.072 11.5867 85.3586 11.3 85.7053 11.06V10.98C85.3453 10.74 85.0386 10.4067 84.7853 9.98C84.532 9.54 84.4053 9.02667 84.4053 8.44C84.4053 7.84 84.5186 7.32 84.7453 6.88C84.9853 6.42667 85.2986 6.05333 85.6853 5.76C86.072 5.45333 86.5186 5.22667 87.0253 5.08C87.5453 4.92 88.0853 4.84 88.6453 4.84C89.2586 4.84 89.8053 4.92 90.2853 5.08H94.3053V7.24H92.3053C92.412 7.38667 92.512 7.58 92.6053 7.82C92.6986 8.04667 92.7453 8.28667 92.7453 8.54C92.7453 9.11333 92.6386 9.60667 92.4253 10.02C92.212 10.4333 91.9186 10.78 91.5453 11.06C91.1853 11.3267 90.752 11.5267 90.2453 11.66C89.752 11.7933 89.2186 11.86 88.6453 11.86C88.2186 11.86 87.7653 11.7933 87.2853 11.66C87.1386 11.7667 87.0253 11.8733 86.9453 11.98C86.8786 12.0867 86.8453 12.2267 86.8453 12.4C86.8453 12.6667 86.9786 12.86 87.2453 12.98C87.512 13.0867 87.9386 13.14 88.5253 13.14H90.3653C91.672 13.14 92.6653 13.3333 93.3453 13.72C94.0386 14.1067 94.3853 14.7467 94.3853 15.64C94.3853 16.16 94.2453 16.64 93.9653 17.08C93.6853 17.52 93.292 17.8933 92.7853 18.2C92.2786 18.52 91.6586 18.7667 90.9253 18.94C90.192 19.1267 89.3786 19.22 88.4853 19.22ZM88.6453 10.08C89.0586 10.08 89.412 9.94667 89.7053 9.68C89.9986 9.4 90.1453 8.98667 90.1453 8.44C90.1453 7.92 89.9986 7.52 89.7053 7.24C89.412 6.96 89.0586 6.82 88.6453 6.82C88.232 6.82 87.8786 6.96 87.5853 7.24C87.3053 7.52 87.1653 7.92 87.1653 8.44C87.1653 8.98667 87.3053 9.4 87.5853 9.68C87.8786 9.94667 88.232 10.08 88.6453 10.08ZM88.9053 17.36C89.7053 17.36 90.352 17.2467 90.8453 17.02C91.3386 16.7933 91.5853 16.5067 91.5853 16.16C91.5853 15.84 91.4386 15.6333 91.1453 15.54C90.852 15.4467 90.4186 15.4 89.8453 15.4H88.6053C88.2453 15.4 87.9453 15.3867 87.7053 15.36C87.4786 15.3467 87.272 15.3133 87.0853 15.26C86.832 15.42 86.652 15.5733 86.5453 15.72C86.4386 15.88 86.3853 16.0533 86.3853 16.24C86.3853 16.6133 86.6053 16.8933 87.0453 17.08C87.4986 17.2667 88.1186 17.36 88.9053 17.36ZM101.538 15.24C100.764 15.24 100.038 15.1267 99.3575 14.9C98.6908 14.66 98.1108 14.32 97.6175 13.88C97.1242 13.44 96.7375 12.9 96.4575 12.26C96.1775 11.6067 96.0375 10.8667 96.0375 10.04C96.0375 9.22667 96.1775 8.5 96.4575 7.86C96.7508 7.20667 97.1375 6.66 97.6175 6.22C98.0975 5.76667 98.6442 5.42667 99.2575 5.2C99.8842 4.96 100.531 4.84 101.198 4.84C101.958 4.84 102.631 4.96 103.218 5.2C103.804 5.44 104.291 5.77333 104.678 6.2C105.078 6.62667 105.378 7.13333 105.578 7.72C105.778 8.29333 105.878 8.92 105.878 9.6C105.878 9.86667 105.858 10.1267 105.818 10.38C105.791 10.62 105.764 10.8 105.738 10.92H98.9775C99.1242 11.64 99.4508 12.1667 99.9575 12.5C100.464 12.8333 101.124 13 101.938 13C102.391 13 102.818 12.94 103.218 12.82C103.631 12.7 104.058 12.5267 104.498 12.3L105.478 14.08C104.904 14.44 104.271 14.7267 103.578 14.94C102.884 15.14 102.204 15.24 101.538 15.24ZM101.298 7.08C100.711 7.08 100.218 7.23333 99.8175 7.54C99.4308 7.84667 99.1642 8.31333 99.0175 8.94H103.258C103.111 7.7 102.458 7.08 101.298 7.08ZM4.96 40.24C4.08 40.24 3.20667 40.0867 2.34 39.78C1.48667 39.46 0.706667 38.9867 1.49012e-08 38.36L1.7 36.34C2.19333 36.74 2.73333 37.0667 3.32 37.32C3.90667 37.5733 4.52 37.7 5.16 37.7C5.8 37.7 6.26667 37.5933 6.56 37.38C6.85333 37.1667 7 36.8933 7 36.56C7 36.3333 6.95333 36.1467 6.86 36C6.76667 35.84 6.63333 35.7 6.46 35.58C6.28667 35.46 6.07333 35.3467 5.82 35.24C5.56667 35.1333 5.28667 35.0133 4.98 34.88L3.3 34.16C2.94 34.0267 2.58667 33.8533 2.24 33.64C1.90667 33.4267 1.61333 33.18 1.36 32.9C1.10667 32.6067 0.9 32.2733 0.74 31.9C0.593333 31.5133 0.52 31.08 0.52 30.6C0.52 30.0667 0.633333 29.5667 0.86 29.1C1.1 28.62 1.42667 28.2067 1.84 27.86C2.26667 27.5 2.77333 27.22 3.36 27.02C3.94667 26.82 4.59333 26.72 5.3 26.72C6.1 26.72 6.87333 26.8667 7.62 27.16C8.36667 27.4533 9.04 27.88 9.64 28.44L8.14 30.3C7.68667 29.9667 7.23333 29.7133 6.78 29.54C6.32667 29.3533 5.78 29.26 5.14 29.26C4.64667 29.26 4.24667 29.36 3.94 29.56C3.64667 29.76 3.5 30.0533 3.5 30.44C3.5 30.8267 3.69333 31.1267 4.08 31.34C4.48 31.54 5 31.7533 5.64 31.98L7.22 32.66C8.08667 32.98 8.76667 33.42 9.26 33.98C9.76667 34.54 10.02 35.28 10.02 36.2C10.02 36.7467 9.90667 37.2667 9.68 37.76C9.45333 38.24 9.12667 38.6667 8.7 39.04C8.27333 39.4 7.74667 39.6933 7.12 39.92C6.49333 40.1333 5.77333 40.24 4.96 40.24ZM18.7522 40.24C17.9655 40.24 17.2989 40.1333 16.7522 39.92C16.2055 39.7067 15.7589 39.4133 15.4122 39.04C15.0789 38.6533 14.8389 38.1933 14.6922 37.66C14.5455 37.1267 14.4722 36.5333 14.4722 35.88V32.38H11.9722V30.2L14.6122 30.08L14.9922 27.04H17.4122V30.08H21.6122V32.38H17.4122V35.86C17.4122 36.62 17.5789 37.16 17.9122 37.48C18.2455 37.7867 18.7789 37.94 19.5122 37.94C19.8855 37.94 20.2255 37.9067 20.5322 37.84C20.8522 37.7733 21.1655 37.6867 21.4722 37.58L21.9922 39.7C21.5522 39.8333 21.0655 39.9533 20.5322 40.06C20.0122 40.18 19.4189 40.24 18.7522 40.24ZM27.4444 40.24C26.311 40.24 25.491 39.88 24.9844 39.16C24.4777 38.44 24.2244 37.4533 24.2244 36.2V30.08H27.1644V35.82C27.1644 36.4867 27.2644 36.9733 27.4644 37.28C27.6644 37.5867 28.0444 37.74 28.6044 37.74C28.9777 37.74 29.3044 37.66 29.5844 37.5C29.8777 37.34 30.1977 37.04 30.5444 36.6V30.08H33.4844V40H31.0844L30.8644 38.58H30.7844C30.3444 39.0867 29.8577 39.4933 29.3244 39.8C28.791 40.0933 28.1644 40.24 27.4444 40.24ZM40.0966 40.24C39.4699 40.24 38.8966 40.12 38.3766 39.88C37.8699 39.64 37.4299 39.3 37.0566 38.86C36.6966 38.4067 36.4166 37.86 36.2166 37.22C36.0166 36.58 35.9166 35.8533 35.9166 35.04C35.9166 34.2267 36.0366 33.5 36.2766 32.86C36.5166 32.22 36.8299 31.68 37.2166 31.24C37.6166 30.7867 38.0699 30.44 38.5766 30.2C39.0832 29.96 39.6099 29.84 40.1566 29.84C40.7166 29.84 41.1899 29.9333 41.5766 30.12C41.9632 30.2933 42.3232 30.5533 42.6566 30.9H42.7366L42.5966 29.36V25.98H45.5366V40H43.1366L42.9166 38.98H42.8566C42.4832 39.34 42.0566 39.64 41.5766 39.88C41.0966 40.12 40.6032 40.24 40.0966 40.24ZM40.8566 37.84C41.1899 37.84 41.4966 37.7733 41.7766 37.64C42.0566 37.4933 42.3299 37.2533 42.5966 36.92V32.9C42.3299 32.66 42.0566 32.4933 41.7766 32.4C41.5099 32.2933 41.2299 32.24 40.9366 32.24C40.3899 32.24 39.9166 32.4667 39.5166 32.92C39.1299 33.3733 38.9366 34.0667 38.9366 35C38.9366 35.9867 39.1032 36.7067 39.4366 37.16C39.7699 37.6133 40.2432 37.84 40.8566 37.84ZM52.5288 40V32.38H48.5488V30.08H55.4688V40H52.5288ZM53.8688 28.52C53.2954 28.52 52.8221 28.36 52.4488 28.04C52.0888 27.72 51.9088 27.2867 51.9088 26.74C51.9088 26.1933 52.0888 25.7533 52.4488 25.42C52.8221 25.0733 53.2954 24.9 53.8688 24.9C54.4421 24.9 54.9088 25.0733 55.2688 25.42C55.6421 25.7533 55.8288 26.1933 55.8288 26.74C55.8288 27.2867 55.6421 27.72 55.2688 28.04C54.9088 28.36 54.4421 28.52 53.8688 28.52ZM64.9609 40.24C64.3076 40.24 63.6743 40.1267 63.0609 39.9C62.4609 39.66 61.9209 39.32 61.4409 38.88C60.9743 38.44 60.6009 37.9 60.3209 37.26C60.0409 36.6067 59.9009 35.8667 59.9009 35.04C59.9009 34.2133 60.0409 33.48 60.3209 32.84C60.6009 32.1867 60.9743 31.64 61.4409 31.2C61.9209 30.76 62.4609 30.4267 63.0609 30.2C63.6743 29.96 64.3076 29.84 64.9609 29.84C65.6143 29.84 66.2409 29.96 66.8409 30.2C67.4543 30.4267 67.9943 30.76 68.4609 31.2C68.9409 31.64 69.3209 32.1867 69.6009 32.84C69.8809 33.48 70.0209 34.2133 70.0209 35.04C70.0209 35.8667 69.8809 36.6067 69.6009 37.26C69.3209 37.9 68.9409 38.44 68.4609 38.88C67.9943 39.32 67.4543 39.66 66.8409 39.9C66.2409 40.1267 65.6143 40.24 64.9609 40.24ZM64.9609 37.86C65.6409 37.86 66.1476 37.6067 66.4809 37.1C66.8276 36.5933 67.0009 35.9067 67.0009 35.04C67.0009 34.1733 66.8276 33.4867 66.4809 32.98C66.1476 32.4733 65.6409 32.22 64.9609 32.22C64.2809 32.22 63.7676 32.4733 63.4209 32.98C63.0876 33.4867 62.9209 34.1733 62.9209 35.04C62.9209 35.9067 63.0876 36.5933 63.4209 37.1C63.7676 37.6067 64.2809 37.86 64.9609 37.86Z" fill="#E4E4E4"/>
</svg>
