<svg width="119" height="125" viewBox="0 0 119 125" fill="none" xmlns="http://www.w3.org/2000/svg">
<path d="M53.837 18.216C52.841 18.216 52.001 18.06 51.317 17.748C50.633 17.424 50.081 17.04 49.661 16.596L50.543 15.444C50.927 15.792 51.377 16.098 51.893 16.362C52.421 16.626 53.027 16.758 53.711 16.758C54.083 16.758 54.425 16.716 54.737 16.632C55.049 16.536 55.319 16.404 55.547 16.236C55.787 16.068 55.973 15.87 56.105 15.642C56.237 15.402 56.303 15.132 56.303 14.832C56.303 14.52 56.231 14.238 56.087 13.986C55.943 13.722 55.715 13.5 55.403 13.32C55.091 13.128 54.677 12.984 54.161 12.888C53.657 12.78 53.039 12.726 52.307 12.726V11.394C52.955 11.394 53.507 11.346 53.963 11.25C54.419 11.142 54.791 11.004 55.079 10.836C55.367 10.656 55.577 10.446 55.709 10.206C55.841 9.966 55.907 9.702 55.907 9.414C55.907 8.898 55.703 8.49 55.295 8.19C54.899 7.89 54.371 7.74 53.711 7.74C53.195 7.74 52.709 7.848 52.253 8.064C51.809 8.268 51.395 8.538 51.011 8.874L50.075 7.758C50.579 7.338 51.137 6.996 51.749 6.732C52.361 6.456 53.039 6.318 53.783 6.318C54.347 6.318 54.869 6.384 55.349 6.516C55.829 6.648 56.243 6.84 56.591 7.092C56.939 7.344 57.209 7.656 57.401 8.028C57.605 8.4 57.707 8.82 57.707 9.288C57.707 9.96 57.485 10.518 57.041 10.962C56.609 11.394 56.033 11.73 55.313 11.97V12.042C55.685 12.126 56.039 12.252 56.375 12.42C56.723 12.588 57.023 12.792 57.275 13.032C57.527 13.272 57.725 13.554 57.869 13.878C58.025 14.19 58.103 14.538 58.103 14.922C58.103 15.438 57.989 15.9 57.761 16.308C57.533 16.716 57.227 17.064 56.843 17.352C56.459 17.628 56.003 17.844 55.475 18C54.959 18.144 54.413 18.216 53.837 18.216ZM60.994 18V6.21H63.982C65.758 6.21 67.12 6.702 68.068 7.686C69.028 8.67 69.508 10.128 69.508 12.06C69.508 13.98 69.034 15.45 68.086 16.47C67.138 17.49 65.8 18 64.072 18H60.994ZM62.794 16.542H63.874C65.11 16.542 66.046 16.164 66.682 15.408C67.33 14.652 67.654 13.536 67.654 12.06C67.654 10.584 67.33 9.486 66.682 8.766C66.046 8.034 65.11 7.668 63.874 7.668H62.794V16.542ZM28.7771 110V98.21H32.5751C33.1871 98.21 33.7511 98.27 34.2671 98.39C34.7831 98.498 35.2271 98.69 35.5991 98.966C35.9831 99.23 36.2771 99.578 36.4811 100.01C36.6971 100.442 36.8051 100.976 36.8051 101.612C36.8051 102.524 36.5771 103.256 36.1211 103.808C35.6771 104.36 35.0771 104.75 34.3211 104.978L37.2191 110H35.1851L32.5031 105.212H30.5771V110H28.7771ZM30.5771 103.754H32.3591C33.2231 103.754 33.8831 103.58 34.3391 103.232C34.7951 102.872 35.0231 102.332 35.0231 101.612C35.0231 100.892 34.7951 100.388 34.3391 100.1C33.8831 99.8 33.2231 99.65 32.3591 99.65H30.5771V103.754ZM43.3141 110.216C42.7381 110.216 42.1861 110.114 41.6581 109.91C41.1301 109.706 40.6621 109.406 40.2541 109.01C39.8461 108.614 39.5221 108.134 39.2821 107.57C39.0421 106.994 38.9221 106.34 38.9221 105.608C38.9221 104.876 39.0421 104.222 39.2821 103.646C39.5221 103.07 39.8461 102.584 40.2541 102.188C40.6621 101.792 41.1301 101.492 41.6581 101.288C42.1861 101.084 42.7381 100.982 43.3141 100.982C43.8901 100.982 44.4421 101.084 44.9701 101.288C45.4981 101.492 45.9661 101.792 46.3741 102.188C46.7821 102.584 47.1061 103.07 47.3461 103.646C47.5861 104.222 47.7061 104.876 47.7061 105.608C47.7061 106.34 47.5861 106.994 47.3461 107.57C47.1061 108.134 46.7821 108.614 46.3741 109.01C45.9661 109.406 45.4981 109.706 44.9701 109.91C44.4421 110.114 43.8901 110.216 43.3141 110.216ZM43.3141 108.758C44.1061 108.758 44.7301 108.47 45.1861 107.894C45.6421 107.318 45.8701 106.556 45.8701 105.608C45.8701 104.66 45.6421 103.898 45.1861 103.322C44.7301 102.746 44.1061 102.458 43.3141 102.458C42.5221 102.458 41.8981 102.746 41.4421 103.322C40.9861 103.898 40.7581 104.66 40.7581 105.608C40.7581 106.556 40.9861 107.318 41.4421 107.894C41.8981 108.47 42.5221 108.758 43.3141 108.758ZM55.763 110.216C55.115 110.216 54.563 110.126 54.107 109.946C53.663 109.766 53.303 109.514 53.027 109.19C52.763 108.866 52.571 108.482 52.451 108.038C52.331 107.582 52.271 107.078 52.271 106.526V102.638H49.859V101.288L52.343 101.198L52.577 98.408H54.053V101.198H58.211V102.638H54.053V106.526C54.053 107.282 54.203 107.846 54.503 108.218C54.815 108.59 55.373 108.776 56.177 108.776C56.561 108.776 56.915 108.746 57.239 108.686C57.563 108.614 57.881 108.518 58.193 108.398L58.553 109.712C58.157 109.844 57.737 109.958 57.293 110.054C56.849 110.162 56.339 110.216 55.763 110.216ZM63.838 110.216C63.418 110.216 63.022 110.156 62.65 110.036C62.29 109.916 61.978 109.748 61.714 109.532C61.45 109.304 61.24 109.034 61.084 108.722C60.94 108.41 60.868 108.062 60.868 107.678C60.868 107.186 60.982 106.754 61.21 106.382C61.45 106.01 61.816 105.692 62.308 105.428C62.812 105.164 63.454 104.948 64.234 104.78C65.026 104.612 65.974 104.486 67.078 104.402C67.054 103.862 66.874 103.4 66.538 103.016C66.214 102.632 65.662 102.44 64.882 102.44C64.342 102.44 63.814 102.542 63.298 102.746C62.794 102.95 62.326 103.178 61.894 103.43L61.228 102.224C61.468 102.08 61.738 101.936 62.038 101.792C62.338 101.636 62.656 101.498 62.992 101.378C63.34 101.258 63.694 101.162 64.054 101.09C64.426 101.018 64.804 100.982 65.188 100.982C66.412 100.982 67.33 101.312 67.942 101.972C68.554 102.632 68.86 103.544 68.86 104.708V110H67.402L67.258 108.866H67.204C66.736 109.226 66.208 109.544 65.62 109.82C65.044 110.084 64.45 110.216 63.838 110.216ZM64.342 108.794C64.81 108.794 65.266 108.692 65.71 108.488C66.166 108.284 66.622 107.996 67.078 107.624V105.536C66.214 105.608 65.494 105.704 64.918 105.824C64.342 105.932 63.88 106.076 63.532 106.256C63.196 106.424 62.956 106.616 62.812 106.832C62.668 107.048 62.596 107.288 62.596 107.552C62.596 107.996 62.764 108.314 63.1 108.506C63.448 108.698 63.862 108.794 64.342 108.794ZM77.349 110.216C76.701 110.216 76.149 110.126 75.693 109.946C75.249 109.766 74.889 109.514 74.613 109.19C74.349 108.866 74.157 108.482 74.037 108.038C73.917 107.582 73.857 107.078 73.857 106.526V102.638H71.445V101.288L73.929 101.198L74.163 98.408H75.639V101.198H79.797V102.638H75.639V106.526C75.639 107.282 75.789 107.846 76.089 108.218C76.401 108.59 76.959 108.776 77.763 108.776C78.147 108.776 78.501 108.746 78.825 108.686C79.149 108.614 79.467 108.518 79.779 108.398L80.139 109.712C79.743 109.844 79.323 109.958 78.879 110.054C78.435 110.162 77.925 110.216 77.349 110.216ZM87.0259 110.216C86.3539 110.216 85.7299 110.114 85.1539 109.91C84.5779 109.706 84.0739 109.406 83.6419 109.01C83.2099 108.614 82.8679 108.128 82.6159 107.552C82.3759 106.976 82.2559 106.322 82.2559 105.59C82.2559 104.87 82.3819 104.228 82.6339 103.664C82.8859 103.088 83.2159 102.602 83.6239 102.206C84.0439 101.81 84.5239 101.51 85.0639 101.306C85.6039 101.09 86.1679 100.982 86.7559 100.982C87.4039 100.982 87.9799 101.084 88.4839 101.288C88.9879 101.492 89.4079 101.78 89.7439 102.152C90.0919 102.512 90.3559 102.95 90.5359 103.466C90.7159 103.97 90.8059 104.528 90.8059 105.14C90.8059 105.332 90.7999 105.512 90.7879 105.68C90.7759 105.848 90.7579 105.992 90.7339 106.112H84.0379C84.1339 107.024 84.4759 107.702 85.0639 108.146C85.6639 108.59 86.3959 108.812 87.2599 108.812C87.7519 108.812 88.2019 108.746 88.6099 108.614C89.0179 108.47 89.4199 108.278 89.8159 108.038L90.4459 109.172C89.9899 109.472 89.4739 109.724 88.8979 109.928C88.3339 110.12 87.7099 110.216 87.0259 110.216ZM86.8099 102.386C86.4739 102.386 86.1559 102.44 85.8559 102.548C85.5559 102.644 85.2859 102.794 85.0459 102.998C84.8059 103.202 84.6019 103.454 84.4339 103.754C84.2659 104.054 84.1459 104.402 84.0739 104.798H89.2039C89.1439 103.994 88.8979 103.394 88.4659 102.998C88.0459 102.59 87.4939 102.386 86.8099 102.386Z" fill="#E4E4E4"/>
<g clip-path="url(#clip0_1391_2239)">
<path d="M25 66.5274C25.5113 63.7465 26.8939 61.4283 29.0363 59.5992C30.3343 58.4897 31.7871 57.5521 33.204 56.5844C33.8089 56.1714 34.493 55.8701 35.1537 55.544C35.7784 55.2356 36.3185 55.381 36.6083 55.8949C36.9072 56.4249 36.7127 56.9903 36.0574 57.3164C33.9223 58.3763 31.8987 59.5903 30.1759 61.2422C28.7194 62.6388 27.5744 64.2339 27.1676 66.2385C26.6761 68.6701 27.4718 70.7775 28.9841 72.658C30.9698 75.1269 33.6144 76.745 36.4553 78.0708C41.4799 80.4156 46.8214 81.596 52.3177 82.1844C57.1119 82.6984 61.9079 82.6878 66.7021 82.1844C69.9642 81.8424 73.1814 81.2628 76.3337 80.3518C76.4723 80.3128 76.6019 80.249 76.7207 80.0966C75.1707 79.953 73.6188 79.8077 72.0688 79.6641C71.9122 79.6499 71.7537 79.6517 71.5989 79.6234C70.9868 79.5064 70.5979 79.0456 70.6969 78.505C70.8032 77.9219 71.1848 77.6153 71.7933 77.6596C73.0013 77.7482 74.2093 77.8528 75.4155 77.9644C77.6047 78.1665 79.7938 78.3845 81.9848 78.5777C82.5015 78.6237 82.9156 78.7797 83.074 79.2955C83.2306 79.8059 82.9966 80.1816 82.5897 80.5007C79.9721 82.5495 77.3616 84.6108 74.744 86.6614C74.1445 87.1311 73.5126 87.1045 73.1418 86.6277C72.7691 86.1492 72.9095 85.5679 73.5144 85.0893C74.6486 84.1943 75.7828 83.2992 77.0646 82.2872C75.4587 82.6523 74.0545 83.0103 72.6341 83.2904C66.5203 84.4974 60.3542 84.8128 54.1396 84.3414C48.6757 83.9267 43.336 82.9341 38.2124 80.9792C34.7576 79.6623 31.5117 77.9839 28.8148 75.4193C26.8957 73.5955 25.4861 71.4882 25.0846 68.8314C25.0756 68.7694 25.0288 68.7109 25 68.6506C25 67.9435 25 67.2363 25 66.5274Z" fill="#E4E4E4"/>
<path d="M39.528 53.7506C39.528 50.8776 39.5532 48.0028 39.519 45.1298C39.4956 43.1802 40.3508 41.8279 42.0754 40.8939C47.1073 38.1733 52.1229 35.4243 57.1313 32.6612C58.7264 31.7821 60.262 31.7768 61.8553 32.6541C66.9051 35.4332 71.9676 38.1928 77.0282 40.9506C78.6737 41.8474 79.4784 43.1891 79.473 45.0536C79.455 50.867 79.4532 56.6803 79.473 62.4937C79.4784 64.3564 78.6827 65.7034 77.0354 66.6002C71.955 69.3704 66.8763 72.146 61.8031 74.9303C60.2332 75.7917 58.7084 75.7651 57.1403 74.9002C52.0923 72.1176 47.0317 69.3563 41.9692 66.6002C40.322 65.7034 39.5064 64.3671 39.5226 62.5025C39.546 59.587 39.528 56.6679 39.528 53.7506ZM77.4459 44.63C77.2497 44.7151 77.129 44.7576 77.0174 44.8179C71.6633 47.7458 66.3128 50.6791 60.9516 53.5928C60.5645 53.8038 60.5015 54.0661 60.5033 54.4471C60.5141 56.8575 60.5087 59.268 60.5087 61.6766C60.5087 64.2643 60.5141 66.8501 60.5033 69.4378C60.4997 70.23 60.118 70.6554 59.4789 70.643C58.865 70.6324 58.5158 70.2212 58.4888 69.4679C58.4816 69.2907 58.487 69.1134 58.487 68.938C58.487 64.1171 58.4816 59.2981 58.496 54.4773C58.4978 54.0306 58.3789 53.7612 57.9613 53.5344C52.6774 50.6649 47.4043 47.7777 42.1277 44.8959C41.9638 44.8055 41.7856 44.7381 41.584 44.646C41.5696 44.809 41.5552 44.8959 41.5552 44.9827C41.5534 50.8864 41.557 56.7902 41.5516 62.6939C41.5498 63.7166 42.0646 64.3759 42.945 64.8562C47.9894 67.6052 53.0321 70.3559 58.0603 73.1332C59.0378 73.6737 59.9326 73.6932 60.9138 73.1527C65.9042 70.4002 70.9018 67.6601 75.9138 64.9484C77.003 64.36 77.4711 63.5589 77.4639 62.3324C77.4297 56.6714 77.4495 51.0123 77.4495 45.3514C77.4459 45.1369 77.4459 44.9224 77.4459 44.63ZM42.6659 42.8576C42.8028 42.9587 42.8658 43.0189 42.9414 43.0597C48.3315 46.0107 53.7216 48.9652 59.1261 51.8914C59.3493 52.0119 59.776 51.9516 60.0208 51.8187C65.2669 48.9741 70.5003 46.1064 75.7338 43.2422C75.9228 43.1377 76.1047 43.0189 76.3387 42.8789C76.0813 42.73 75.8922 42.6148 75.6996 42.5103C71.1124 39.9988 66.4821 37.5618 61.9597 34.9405C60.2116 33.9267 58.8272 33.9125 57.0701 34.9281C52.3551 37.6558 47.5285 40.1991 42.6659 42.8576Z" fill="#E4E4E4"/>
<path d="M93.9995 67.6231C93.9509 70.2179 92.9608 72.4439 91.2235 74.2996C90.1361 75.4605 88.8579 76.453 87.6247 77.4757C87.0522 77.9507 86.4563 77.8638 86.0818 77.3818C85.7092 76.8997 85.8784 76.3325 86.4689 75.8469C87.4663 75.0281 88.5266 74.2588 89.407 73.3284C92.8563 69.6791 92.8131 65.4343 89.3638 61.7885C87.6103 59.9346 85.4877 58.5876 83.2085 57.4568C82.267 56.9889 81.9789 56.521 82.267 55.9149C82.5748 55.268 83.1509 55.1918 84.1159 55.6774C87.0396 57.1484 89.7346 58.9137 91.7564 61.5244C93.157 63.3322 93.9887 65.3439 93.9995 67.6231Z" fill="#E4E4E4"/>
</g>
<defs>
<clipPath id="clip0_1391_2239">
<rect width="69" height="55" fill="white" transform="translate(25 32)"/>
</clipPath>
</defs>
</svg>
