<svg width="119" height="125" viewBox="0 0 119 125" fill="none" xmlns="http://www.w3.org/2000/svg">
<path d="M53.837 18.216C52.841 18.216 52.001 18.06 51.317 17.748C50.633 17.424 50.081 17.04 49.661 16.596L50.543 15.444C50.927 15.792 51.377 16.098 51.893 16.362C52.421 16.626 53.027 16.758 53.711 16.758C54.083 16.758 54.425 16.716 54.737 16.632C55.049 16.536 55.319 16.404 55.547 16.236C55.787 16.068 55.973 15.87 56.105 15.642C56.237 15.402 56.303 15.132 56.303 14.832C56.303 14.52 56.231 14.238 56.087 13.986C55.943 13.722 55.715 13.5 55.403 13.32C55.091 13.128 54.677 12.984 54.161 12.888C53.657 12.78 53.039 12.726 52.307 12.726V11.394C52.955 11.394 53.507 11.346 53.963 11.25C54.419 11.142 54.791 11.004 55.079 10.836C55.367 10.656 55.577 10.446 55.709 10.206C55.841 9.966 55.907 9.702 55.907 9.414C55.907 8.898 55.703 8.49 55.295 8.19C54.899 7.89 54.371 7.74 53.711 7.74C53.195 7.74 52.709 7.848 52.253 8.064C51.809 8.268 51.395 8.538 51.011 8.874L50.075 7.758C50.579 7.338 51.137 6.996 51.749 6.732C52.361 6.456 53.039 6.318 53.783 6.318C54.347 6.318 54.869 6.384 55.349 6.516C55.829 6.648 56.243 6.84 56.591 7.092C56.939 7.344 57.209 7.656 57.401 8.028C57.605 8.4 57.707 8.82 57.707 9.288C57.707 9.96 57.485 10.518 57.041 10.962C56.609 11.394 56.033 11.73 55.313 11.97V12.042C55.685 12.126 56.039 12.252 56.375 12.42C56.723 12.588 57.023 12.792 57.275 13.032C57.527 13.272 57.725 13.554 57.869 13.878C58.025 14.19 58.103 14.538 58.103 14.922C58.103 15.438 57.989 15.9 57.761 16.308C57.533 16.716 57.227 17.064 56.843 17.352C56.459 17.628 56.003 17.844 55.475 18C54.959 18.144 54.413 18.216 53.837 18.216ZM60.994 18V6.21H63.982C65.758 6.21 67.12 6.702 68.068 7.686C69.028 8.67 69.508 10.128 69.508 12.06C69.508 13.98 69.034 15.45 68.086 16.47C67.138 17.49 65.8 18 64.072 18H60.994ZM62.794 16.542H63.874C65.11 16.542 66.046 16.164 66.682 15.408C67.33 14.652 67.654 13.536 67.654 12.06C67.654 10.584 67.33 9.486 66.682 8.766C66.046 8.034 65.11 7.668 63.874 7.668H62.794V16.542ZM28.7771 110V98.21H32.5751C33.1871 98.21 33.7511 98.27 34.2671 98.39C34.7831 98.498 35.2271 98.69 35.5991 98.966C35.9831 99.23 36.2771 99.578 36.4811 100.01C36.6971 100.442 36.8051 100.976 36.8051 101.612C36.8051 102.524 36.5771 103.256 36.1211 103.808C35.6771 104.36 35.0771 104.75 34.3211 104.978L37.2191 110H35.1851L32.5031 105.212H30.5771V110H28.7771ZM30.5771 103.754H32.3591C33.2231 103.754 33.8831 103.58 34.3391 103.232C34.7951 102.872 35.0231 102.332 35.0231 101.612C35.0231 100.892 34.7951 100.388 34.3391 100.1C33.8831 99.8 33.2231 99.65 32.3591 99.65H30.5771V103.754ZM43.3141 110.216C42.7381 110.216 42.1861 110.114 41.6581 109.91C41.1301 109.706 40.6621 109.406 40.2541 109.01C39.8461 108.614 39.5221 108.134 39.2821 107.57C39.0421 106.994 38.9221 106.34 38.9221 105.608C38.9221 104.876 39.0421 104.222 39.2821 103.646C39.5221 103.07 39.8461 102.584 40.2541 102.188C40.6621 101.792 41.1301 101.492 41.6581 101.288C42.1861 101.084 42.7381 100.982 43.3141 100.982C43.8901 100.982 44.4421 101.084 44.9701 101.288C45.4981 101.492 45.9661 101.792 46.3741 102.188C46.7821 102.584 47.1061 103.07 47.3461 103.646C47.5861 104.222 47.7061 104.876 47.7061 105.608C47.7061 106.34 47.5861 106.994 47.3461 107.57C47.1061 108.134 46.7821 108.614 46.3741 109.01C45.9661 109.406 45.4981 109.706 44.9701 109.91C44.4421 110.114 43.8901 110.216 43.3141 110.216ZM43.3141 108.758C44.1061 108.758 44.7301 108.47 45.1861 107.894C45.6421 107.318 45.8701 106.556 45.8701 105.608C45.8701 104.66 45.6421 103.898 45.1861 103.322C44.7301 102.746 44.1061 102.458 43.3141 102.458C42.5221 102.458 41.8981 102.746 41.4421 103.322C40.9861 103.898 40.7581 104.66 40.7581 105.608C40.7581 106.556 40.9861 107.318 41.4421 107.894C41.8981 108.47 42.5221 108.758 43.3141 108.758ZM55.763 110.216C55.115 110.216 54.563 110.126 54.107 109.946C53.663 109.766 53.303 109.514 53.027 109.19C52.763 108.866 52.571 108.482 52.451 108.038C52.331 107.582 52.271 107.078 52.271 106.526V102.638H49.859V101.288L52.343 101.198L52.577 98.408H54.053V101.198H58.211V102.638H54.053V106.526C54.053 107.282 54.203 107.846 54.503 108.218C54.815 108.59 55.373 108.776 56.177 108.776C56.561 108.776 56.915 108.746 57.239 108.686C57.563 108.614 57.881 108.518 58.193 108.398L58.553 109.712C58.157 109.844 57.737 109.958 57.293 110.054C56.849 110.162 56.339 110.216 55.763 110.216ZM63.838 110.216C63.418 110.216 63.022 110.156 62.65 110.036C62.29 109.916 61.978 109.748 61.714 109.532C61.45 109.304 61.24 109.034 61.084 108.722C60.94 108.41 60.868 108.062 60.868 107.678C60.868 107.186 60.982 106.754 61.21 106.382C61.45 106.01 61.816 105.692 62.308 105.428C62.812 105.164 63.454 104.948 64.234 104.78C65.026 104.612 65.974 104.486 67.078 104.402C67.054 103.862 66.874 103.4 66.538 103.016C66.214 102.632 65.662 102.44 64.882 102.44C64.342 102.44 63.814 102.542 63.298 102.746C62.794 102.95 62.326 103.178 61.894 103.43L61.228 102.224C61.468 102.08 61.738 101.936 62.038 101.792C62.338 101.636 62.656 101.498 62.992 101.378C63.34 101.258 63.694 101.162 64.054 101.09C64.426 101.018 64.804 100.982 65.188 100.982C66.412 100.982 67.33 101.312 67.942 101.972C68.554 102.632 68.86 103.544 68.86 104.708V110H67.402L67.258 108.866H67.204C66.736 109.226 66.208 109.544 65.62 109.82C65.044 110.084 64.45 110.216 63.838 110.216ZM64.342 108.794C64.81 108.794 65.266 108.692 65.71 108.488C66.166 108.284 66.622 107.996 67.078 107.624V105.536C66.214 105.608 65.494 105.704 64.918 105.824C64.342 105.932 63.88 106.076 63.532 106.256C63.196 106.424 62.956 106.616 62.812 106.832C62.668 107.048 62.596 107.288 62.596 107.552C62.596 107.996 62.764 108.314 63.1 108.506C63.448 108.698 63.862 108.794 64.342 108.794ZM77.349 110.216C76.701 110.216 76.149 110.126 75.693 109.946C75.249 109.766 74.889 109.514 74.613 109.19C74.349 108.866 74.157 108.482 74.037 108.038C73.917 107.582 73.857 107.078 73.857 106.526V102.638H71.445V101.288L73.929 101.198L74.163 98.408H75.639V101.198H79.797V102.638H75.639V106.526C75.639 107.282 75.789 107.846 76.089 108.218C76.401 108.59 76.959 108.776 77.763 108.776C78.147 108.776 78.501 108.746 78.825 108.686C79.149 108.614 79.467 108.518 79.779 108.398L80.139 109.712C79.743 109.844 79.323 109.958 78.879 110.054C78.435 110.162 77.925 110.216 77.349 110.216ZM87.0259 110.216C86.3539 110.216 85.7299 110.114 85.1539 109.91C84.5779 109.706 84.0739 109.406 83.6419 109.01C83.2099 108.614 82.8679 108.128 82.6159 107.552C82.3759 106.976 82.2559 106.322 82.2559 105.59C82.2559 104.87 82.3819 104.228 82.6339 103.664C82.8859 103.088 83.2159 102.602 83.6239 102.206C84.0439 101.81 84.5239 101.51 85.0639 101.306C85.6039 101.09 86.1679 100.982 86.7559 100.982C87.4039 100.982 87.9799 101.084 88.4839 101.288C88.9879 101.492 89.4079 101.78 89.7439 102.152C90.0919 102.512 90.3559 102.95 90.5359 103.466C90.7159 103.97 90.8059 104.528 90.8059 105.14C90.8059 105.332 90.7999 105.512 90.7879 105.68C90.7759 105.848 90.7579 105.992 90.7339 106.112H84.0379C84.1339 107.024 84.4759 107.702 85.0639 108.146C85.6639 108.59 86.3959 108.812 87.2599 108.812C87.7519 108.812 88.2019 108.746 88.6099 108.614C89.0179 108.47 89.4199 108.278 89.8159 108.038L90.4459 109.172C89.9899 109.472 89.4739 109.724 88.8979 109.928C88.3339 110.12 87.7099 110.216 87.0259 110.216ZM86.8099 102.386C86.4739 102.386 86.1559 102.44 85.8559 102.548C85.5559 102.644 85.2859 102.794 85.0459 102.998C84.8059 103.202 84.6019 103.454 84.4339 103.754C84.2659 104.054 84.1459 104.402 84.0739 104.798H89.2039C89.1439 103.994 88.8979 103.394 88.4659 102.998C88.0459 102.59 87.4939 102.386 86.8099 102.386Z" fill="#004077"/>
<g clip-path="url(#clip0_1312_489)">
<path d="M25 66.5275C25.5113 63.7466 26.8939 61.4284 29.0363 59.5993C30.3343 58.4898 31.7871 57.5522 33.204 56.5845C33.8089 56.1716 34.493 55.8703 35.1537 55.5441C35.7784 55.2357 36.3185 55.3811 36.6083 55.8951C36.9072 56.425 36.7127 56.9904 36.0574 57.3165C33.9223 58.3764 31.8987 59.5904 30.1759 61.2423C28.7194 62.6389 27.5744 64.234 27.1676 66.2386C26.6761 68.6703 27.4718 70.7776 28.9841 72.6581C30.9698 75.127 33.6144 76.7452 36.4553 78.0709C41.4799 80.4157 46.8214 81.5961 52.3177 82.1845C57.1119 82.6985 61.9079 82.6879 66.7021 82.1845C69.9642 81.8425 73.1814 81.2629 76.3337 80.3519C76.4723 80.3129 76.6019 80.2491 76.7207 80.0967C75.1707 79.9531 73.6188 79.8078 72.0688 79.6642C71.9122 79.6501 71.7537 79.6518 71.5989 79.6235C70.9868 79.5065 70.5979 79.0457 70.6969 78.5051C70.8032 77.922 71.1848 77.6154 71.7933 77.6597C73.0013 77.7483 74.2093 77.8529 75.4155 77.9645C77.6047 78.1666 79.7938 78.3846 81.9848 78.5778C82.5015 78.6239 82.9156 78.7798 83.074 79.2956C83.2306 79.806 82.9966 80.1818 82.5897 80.5008C79.9721 82.5496 77.3616 84.6109 74.744 86.6615C74.1445 87.1312 73.5126 87.1046 73.1418 86.6279C72.7691 86.1493 72.9095 85.568 73.5144 85.0894C74.6486 84.1944 75.7828 83.2994 77.0646 82.2873C75.4587 82.6524 74.0545 83.0105 72.6341 83.2905C66.5203 84.4975 60.3542 84.813 54.1396 84.3415C48.6757 83.9268 43.336 82.9343 38.2124 80.9793C34.7576 79.6625 31.5117 77.984 28.8148 75.4194C26.8957 73.5957 25.4861 71.4883 25.0846 68.8316C25.0756 68.7695 25.0288 68.711 25 68.6508C25 67.9436 25 67.2364 25 66.5275Z" fill="#004077"/>
<path d="M39.5285 53.7505C39.5285 50.8775 39.5537 48.0027 39.5195 45.1297C39.4961 43.1801 40.3512 41.8278 42.0759 40.8937C47.1078 38.1732 52.1234 35.4242 57.1318 32.6611C58.7269 31.782 60.2625 31.7767 61.8558 32.654C66.9056 35.4331 71.9681 38.1927 77.0287 40.9505C78.6742 41.8473 79.4789 43.189 79.4735 45.0535C79.4555 50.8668 79.4537 56.6802 79.4735 62.4935C79.4789 64.3563 78.6832 65.7033 77.0359 66.6001C71.9555 69.3703 66.8768 72.1458 61.8036 74.9302C60.2337 75.7916 58.7089 75.765 57.1408 74.9001C52.0928 72.1175 47.0322 69.3561 41.9697 66.6001C40.3224 65.7033 39.5069 64.3669 39.5231 62.5024C39.5465 59.5869 39.5285 56.6678 39.5285 53.7505ZM77.4464 44.6299C77.2501 44.715 77.1295 44.7575 77.0179 44.8178C71.6638 47.7457 66.3133 50.679 60.9521 53.5927C60.565 53.8036 60.502 54.0659 60.5038 54.447C60.5146 56.8574 60.5092 59.2678 60.5092 61.6765C60.5092 64.2641 60.5146 66.85 60.5038 69.4377C60.5002 70.2299 60.1185 70.6553 59.4794 70.6429C58.8655 70.6322 58.5163 70.221 58.4892 69.4678C58.482 69.2906 58.4874 69.1133 58.4874 68.9379C58.4874 64.117 58.482 59.298 58.4964 54.4771C58.4982 54.0305 58.3794 53.7611 57.9618 53.5342C52.6779 50.6648 47.4048 47.7776 42.1281 44.8957C41.9643 44.8053 41.7861 44.738 41.5845 44.6458C41.57 44.8089 41.5556 44.8957 41.5556 44.9826C41.5538 50.8863 41.5574 56.7901 41.552 62.6938C41.5502 63.7165 42.0651 64.3758 42.9455 64.8561C47.9899 67.605 53.0325 70.3557 58.0608 73.133C59.0383 73.6736 59.9331 73.6931 60.9142 73.1525C65.9047 70.4001 70.9023 67.66 75.9143 64.9483C77.0035 64.3598 77.4716 63.5587 77.4644 62.3323C77.4302 56.6713 77.45 51.0122 77.45 45.3512C77.4464 45.1368 77.4464 44.9223 77.4464 44.6299ZM42.6664 42.8575C42.8033 42.9585 42.8663 43.0188 42.9419 43.0596C48.332 46.0106 53.7221 48.9651 59.1265 51.8913C59.3498 52.0118 59.7765 51.9515 60.0213 51.8186C65.2674 48.9739 70.5008 46.1063 75.7343 43.2421C75.9233 43.1376 76.1052 43.0188 76.3392 42.8788C76.0818 42.7299 75.8927 42.6147 75.7001 42.5101C71.1129 39.9987 66.4826 37.5617 61.9602 34.9404C60.2121 33.9266 58.8277 33.9124 57.0706 34.928C52.3556 37.6556 47.529 40.199 42.6664 42.8575Z" fill="#004077"/>
<path d="M94 67.6228C93.9514 70.2175 92.9612 72.4436 91.224 74.2992C90.1366 75.4601 88.8584 76.4527 87.6252 77.4753C87.0527 77.9503 86.4568 77.8635 86.0823 77.3814C85.7097 76.8993 85.8789 76.3321 86.4694 75.8465C87.4667 75.0277 88.5271 74.2585 89.4075 73.328C92.8568 69.6787 92.8136 65.4339 89.3643 61.7881C87.6108 59.9342 85.4882 58.5872 83.209 57.4565C82.2675 56.9886 81.9794 56.5207 82.2675 55.9145C82.5753 55.2676 83.1514 55.1914 84.1164 55.677C87.0401 57.1481 89.7351 58.9134 91.7568 61.524C93.1575 63.3319 93.9892 65.3435 94 67.6228Z" fill="#004077"/>
</g>
<defs>
<clipPath id="clip0_1312_489">
<rect width="69" height="55" fill="white" transform="translate(25 32)"/>
</clipPath>
</defs>
</svg>
