<svg width="272" height="28" viewBox="0 0 272 28" fill="none" xmlns="http://www.w3.org/2000/svg">
<path d="M42.5101 0.330078L31.0801 6.93008V20.1301L42.0601 26.4701L42.5001 26.7301L53.9301 20.1301V6.93008L42.9601 0.590078L42.5101 0.330078ZM52.8001 7.58008V19.4601L43.0801 25.0701V1.97008L52.8001 7.58008ZM41.9401 1.97008V25.0701L32.2201 19.4601V7.58008L41.9401 1.97008Z" fill="#E4E4E4"/>
<path d="M166.23 0.330078L154.8 6.93008V20.1201L166.23 26.7201L178.23 19.7901L167.37 13.5201L178.23 7.25008L166.23 0.330078ZM175.95 19.7901L166.23 25.4001L156.51 19.7901L166.23 14.1801L175.95 19.7901ZM156.51 7.26008L166.23 1.65008L175.95 7.26008L166.23 12.8701L156.51 7.26008ZM165.09 13.5301L155.94 18.8101V8.24008L165.09 13.5301Z" fill="#E4E4E4"/>
<path d="M228.08 0.330078L216.65 6.93008V20.1301L227.63 26.4701L228.07 26.7301L240.07 19.8001L229.21 13.5301L240.07 7.26008L228.08 0.330078ZM237.8 7.26008L227.51 13.2001V25.0801L217.79 19.4701V7.59008L228.08 1.65008L237.8 7.26008ZM237.8 19.8001L228.65 25.0801V14.5101L237.8 19.8001Z" fill="#E4E4E4"/>
<path d="M271.17 7.26008L259.17 0.330078L247.74 6.93008V20.1201L259.17 26.7201L271.17 19.7901L260.31 13.5201L271.17 7.26008ZM268.89 19.8001L259.17 25.4101L249.45 19.8001L259.17 14.1901L268.89 19.8001ZM249.45 7.26008L259.17 1.65008L268.89 7.26008L259.17 12.8701L249.45 7.26008ZM258.03 13.5301L248.88 18.8101V8.24008L258.03 13.5301Z" fill="#E4E4E4"/>
<path d="M61.8501 6.93008V20.1301L73.2801 26.7301L84.7101 20.1301V6.93008L73.2801 0.330078L61.8501 6.93008ZM72.7101 1.97008V13.1901L62.9901 18.8001V7.58008L72.7101 1.97008ZM83.0001 19.7901L73.2801 25.4001L63.5601 19.7901L73.2801 14.1801L83.0001 19.7901ZM83.5701 7.58008V18.8001L73.8501 13.1901V1.97008L83.5701 7.58008Z" fill="#E4E4E4"/>
<path d="M104.62 0.0898438L92.6201 7.01984V20.2198L104.05 26.8198L116.05 19.8898L104.62 13.2898V0.0898438ZM103.48 2.06984V13.2898L93.7601 18.8998V7.67984L103.48 2.06984ZM104.05 25.4998L94.3301 19.8898L104.05 14.2798L113.77 19.8898L104.05 25.4998Z" fill="#E4E4E4"/>
<path d="M135.71 0.0898438L123.71 7.01984V20.2198L135.14 26.8198L147.14 19.8898L135.71 13.2898V0.0898438ZM134.57 2.06984V13.2898L124.85 18.8998V7.67984L134.57 2.06984ZM144.86 19.8898L135.14 25.4998L125.42 19.8898L135.14 14.2798L144.86 19.8898Z" fill="#E4E4E4"/>
<path d="M196.75 12.54L185.89 6.27V20.12L197.89 27.05V14.51L208.75 20.78V6.93L196.75 0V12.54ZM187.03 19.47V8.24L196.75 13.85V25.07L187.03 19.47ZM207.6 7.58V18.8L197.88 13.19V1.97L207.6 7.58Z" fill="#E4E4E4"/>
<path d="M11.43 0.330078L0 6.93008V20.1301L10.98 26.4701L11.43 26.7301L23.43 19.8001L12.57 13.5301L23.43 7.26008L11.43 0.330078ZM12 25.0801V14.5101L21.15 19.7901L12 25.0801ZM21.15 7.26008L11.43 12.8701L1.71 7.26008L11.43 1.65008L21.15 7.26008ZM10.86 13.8601V25.0801L1.14 19.4701V8.24008L10.86 13.8601Z" fill="#E4E4E4"/>
</svg>
