<svg width="272" height="28" viewBox="0 0 272 28" fill="none" xmlns="http://www.w3.org/2000/svg">
<path d="M42.51 0.329956L31.08 6.92996V20.13L42.06 26.47L42.5 26.73L53.93 20.13V6.92996L42.96 0.589956L42.51 0.329956ZM52.8 7.57996V19.46L43.08 25.07V1.96996L52.8 7.57996ZM41.94 1.96996V25.07L32.22 19.46V7.57996L41.94 1.96996Z" fill="#004077"/>
<path d="M166.23 0.329956L154.8 6.92996V20.12L166.23 26.72L178.23 19.79L167.37 13.52L178.23 7.24996L166.23 0.329956ZM175.95 19.79L166.23 25.4L156.51 19.79L166.23 14.18L175.95 19.79ZM156.51 7.25996L166.23 1.64996L175.95 7.25996L166.23 12.87L156.51 7.25996ZM165.09 13.53L155.94 18.81V8.23996L165.09 13.53Z" fill="#004077"/>
<path d="M228.08 0.329956L216.65 6.92996V20.13L227.63 26.47L228.07 26.73L240.07 19.8L229.21 13.53L240.07 7.25996L228.08 0.329956ZM237.8 7.25996L227.51 13.2V25.08L217.79 19.47V7.58996L228.08 1.64996L237.8 7.25996ZM237.8 19.8L228.65 25.08V14.51L237.8 19.8Z" fill="#004077"/>
<path d="M271.17 7.25996L259.17 0.329956L247.74 6.92996V20.12L259.17 26.72L271.17 19.79L260.31 13.52L271.17 7.25996ZM268.89 19.8L259.17 25.41L249.45 19.8L259.17 14.19L268.89 19.8ZM249.45 7.25996L259.17 1.64996L268.89 7.25996L259.17 12.87L249.45 7.25996ZM258.03 13.53L248.88 18.81V8.23996L258.03 13.53Z" fill="#004077"/>
<path d="M61.85 6.92996V20.13L73.28 26.73L84.71 20.13V6.92996L73.28 0.329956L61.85 6.92996ZM72.71 1.96996V13.19L62.99 18.8V7.57996L72.71 1.96996ZM83 19.79L73.28 25.4L63.56 19.79L73.28 14.18L83 19.79ZM83.57 7.57996V18.8L73.85 13.19V1.96996L83.57 7.57996Z" fill="#004077"/>
<path d="M104.62 0.0899658L92.62 7.01997V20.22L104.05 26.82L116.05 19.89L104.62 13.29V0.0899658ZM103.48 2.06997V13.29L93.76 18.9V7.67997L103.48 2.06997ZM104.05 25.5L94.33 19.89L104.05 14.28L113.77 19.89L104.05 25.5Z" fill="#004077"/>
<path d="M135.71 0.0899658L123.71 7.01997V20.22L135.14 26.82L147.14 19.89L135.71 13.29V0.0899658ZM134.57 2.06997V13.29L124.85 18.9V7.67997L134.57 2.06997ZM144.86 19.89L135.14 25.5L125.42 19.89L135.14 14.28L144.86 19.89Z" fill="#004077"/>
<path d="M196.75 12.54L185.89 6.27V20.12L197.89 27.05V14.51L208.75 20.78V6.93L196.75 0V12.54ZM187.03 19.47V8.24L196.75 13.85V25.07L187.03 19.47ZM207.6 7.58V18.8L197.88 13.19V1.97L207.6 7.58Z" fill="#004077"/>
<path d="M11.43 0.329956L0 6.92996V20.13L10.98 26.47L11.43 26.73L23.43 19.8L12.57 13.53L23.43 7.25996L11.43 0.329956ZM12 25.08V14.51L21.15 19.79L12 25.08ZM21.15 7.25996L11.43 12.87L1.71 7.25996L11.43 1.64996L21.15 7.25996ZM10.86 13.86V25.08L1.14 19.47V8.23996L10.86 13.86Z" fill="#004077"/>
</svg>
