<svg width="40" height="32" viewBox="0 0 40 32" fill="none" xmlns="http://www.w3.org/2000/svg">
<path d="M39.688 4.36186C38.2514 5.00474 36.7028 5.42721 35.0982 5.62926C36.7401 4.65575 38.0088 3.11282 38.6059 1.25764C37.0573 2.17605 35.3407 2.81893 33.5309 3.1863C32.057 1.60664 29.9859 0.688232 27.635 0.688232C23.2504 0.688232 19.6681 4.21491 19.6681 8.56816C19.6681 9.19267 19.7428 9.79882 19.8734 10.3682C13.2312 10.0376 7.31662 6.89666 3.37981 2.13931C2.68947 3.29651 2.29765 4.65575 2.29765 6.08846C2.29765 8.82531 3.69699 11.2499 5.86131 12.6275C4.5366 12.6275 3.30518 12.2601 2.22302 11.7091V11.7642C2.22302 15.5848 4.98439 18.7808 8.64133 19.4972C7.46724 19.8135 6.23464 19.8575 5.04036 19.6258C5.54712 21.1916 6.53959 22.5617 7.87825 23.5436C9.21692 24.5254 10.8345 25.0695 12.5035 25.0995C9.67428 27.3044 6.16729 28.4963 2.55886 28.4792C1.9245 28.4792 1.29013 28.4425 0.655762 28.369C4.20076 30.6099 8.41743 31.914 12.9326 31.914C27.635 31.914 35.7139 19.9013 35.7139 9.48656C35.7139 9.13757 35.7139 8.80694 35.6952 8.45795C37.2625 7.35586 38.6059 5.95988 39.688 4.36186Z" fill="#004077"/>
</svg>
