<svg width="38" height="28" viewBox="0 0 38 28" fill="none" xmlns="http://www.w3.org/2000/svg">
<path d="M15.4861 19.576L24.9397 14L15.4861 8.42397V19.576ZM36.5427 5.02259C36.7795 5.89617 36.9434 7.06714 37.0527 8.55408C37.1802 10.041 37.2349 11.3235 37.2349 12.4387L37.3442 14C37.3442 18.0705 37.0527 21.063 36.5427 22.9774C36.0873 24.6502 35.0309 25.7283 33.3915 26.1929C32.5354 26.4346 30.9689 26.6019 28.5645 26.7134C26.1966 26.8435 24.029 26.8992 22.0253 26.8992L19.1291 27.0108C11.497 27.0108 6.74288 26.7134 4.86673 26.1929C3.22737 25.7283 2.1709 24.6502 1.71552 22.9774C1.47873 22.1039 1.31479 20.9329 1.2055 19.4459C1.078 17.959 1.02335 16.6765 1.02335 15.5613L0.914062 14C0.914062 9.9295 1.2055 6.93703 1.71552 5.02259C2.1709 3.34978 3.22737 2.27175 4.86673 1.80708C5.72284 1.56545 7.28933 1.39817 9.69372 1.28665C12.0617 1.15654 14.2293 1.10078 16.2329 1.10078L19.1291 0.989258C26.7612 0.989258 31.5154 1.28665 33.3915 1.80708C35.0309 2.27175 36.0873 3.34978 36.5427 5.02259Z" fill="#004077"/>
</svg>
