<?xml version="1.0" standalone="no"?>
<!DOCTYPE svg PUBLIC "-//W3C//DTD SVG 20010904//EN"
 "http://www.w3.org/TR/2001/REC-SVG-20010904/DTD/svg10.dtd">
<svg version="1.0" xmlns="http://www.w3.org/2000/svg"
 width="281.000000pt" height="281.000000pt" viewBox="0 0 281.000000 281.000000"
 preserveAspectRatio="xMidYMid meet">
<metadata>
Created by potrace 1.14, written by Peter Selinger 2001-2017
</metadata>
<g transform="translate(0.000000,281.000000) scale(0.100000,-0.100000)"
fill="#000000" stroke="none">
<path d="M1210 2699 c-102 -61 -192 -113 -200 -116 -8 -4 -49 -27 -90 -51 -41
-25 -91 -54 -110 -65 -19 -11 -150 -86 -292 -168 -141 -82 -271 -157 -290
-167 l-33 -19 -3 -705 -2 -706 367 -212 c203 -117 383 -221 401 -231 17 -11
49 -29 70 -40 20 -12 111 -64 202 -117 91 -52 170 -95 175 -95 6 0 82 42 170
93 171 99 476 275 828 477 l217 125 -2 705 -3 705 -246 142 c-135 77 -281 162
-325 187 -271 159 -621 359 -634 362 -8 3 -98 -44 -200 -104z m133 -1286 c-16
-13 -31 -23 -35 -23 -4 0 -45 -22 -90 -49 -284 -168 -952 -550 -956 -547 -3 4
-6 1115 -3 1248 1 24 27 41 274 184 453 263 700 405 747 432 25 14 54 31 65
39 20 13 20 11 23 -624 l2 -638 -27 -22z m835 870 l372 -216 0 -638 c0 -352
-2 -639 -4 -639 -3 0 -172 97 -376 215 -205 118 -376 215 -381 215 -5 0 -9 4
-9 9 0 5 -6 11 -13 13 -7 2 -83 44 -169 93 l-157 90 -1 642 0 642 183 -106
c100 -58 350 -202 555 -320z m-637 -995 c96 -54 119 -68 184 -107 37 -23 68
-41 70 -41 2 0 63 -36 138 -79 74 -43 154 -90 178 -103 97 -54 385 -222 392
-228 5 -4 -22 -25 -60 -46 -37 -21 -75 -43 -84 -49 -9 -5 -32 -19 -50 -29 -61
-34 -864 -498 -885 -511 -18 -11 -26 -10 -65 14 -24 15 -69 41 -99 58 -30 17
-122 70 -205 118 -137 80 -351 204 -643 372 -63 36 -110 69 -105 73 4 4 154
92 333 195 591 341 645 372 704 407 l60 35 46 -27 c25 -15 66 -38 91 -52z"/>
</g>
</svg>
