<?xml version="1.0" standalone="no"?>
<!DOCTYPE svg PUBLIC "-//W3C//DTD SVG 20010904//EN"
 "http://www.w3.org/TR/2001/REC-SVG-20010904/DTD/svg10.dtd">
<svg version="1.0" xmlns="http://www.w3.org/2000/svg"
 width="80.000000pt" height="80.000000pt" viewBox="0 0 80.000000 80.000000"
 preserveAspectRatio="xMidYMid meet">
<metadata>
Created by potrace 1.14, written by Peter Selinger 2001-2017
</metadata>
<g transform="translate(0.000000,80.000000) scale(0.100000,-0.100000)"
fill="#000000" stroke="none">
<path d="M217 693 l-167 -96 2 -204 3 -205 160 -94 c88 -51 167 -93 175 -93
18 -1 353 192 357 205 1 5 -67 49 -152 97 -85 49 -155 90 -155 92 0 1 70 43
155 91 85 49 153 93 152 98 -3 10 -337 206 -352 206 -5 0 -85 -44 -178 -97z
m318 -30 c74 -42 132 -80 129 -84 -3 -5 -65 -42 -138 -84 l-133 -76 -142 82
-141 82 132 77 c73 43 139 79 146 79 7 1 73 -34 147 -76z m-301 -202 c70 -40
130 -79 132 -85 3 -7 3 -80 2 -164 l-3 -152 -135 77 -135 78 -3 163 c-1 90 1
162 6 160 4 -1 65 -36 136 -77z m429 -250 c5 -5 -51 -42 -122 -84 l-131 -75 0
153 0 154 123 -70 c67 -39 126 -74 130 -78z"/>
</g>
</svg>
